<svg width="32" height="32" viewBox="0 0 32 32" fill="none" xmlns="http://www.w3.org/2000/svg">
<path d="M2.66699 15.9998L15.5233 22.4279C15.6982 22.5154 15.7857 22.5591 15.8774 22.5763C15.9586 22.5915 16.042 22.5915 16.1233 22.5763C16.215 22.5591 16.3024 22.5154 16.4774 22.4279L29.3337 15.9998M2.66699 22.6664L15.5233 29.0946C15.6982 29.182 15.7857 29.2258 15.8774 29.243C15.9586 29.2582 16.042 29.2582 16.1233 29.243C16.215 29.2258 16.3024 29.182 16.4774 29.0946L29.3337 22.6664M2.66699 9.33309L15.5233 2.90494C15.6982 2.81749 15.7857 2.77376 15.8774 2.75655C15.9586 2.74131 16.042 2.74131 16.1233 2.75655C16.215 2.77376 16.3024 2.81749 16.4774 2.90494L29.3337 9.33309L16.4774 15.7612C16.3024 15.8487 16.215 15.8924 16.1233 15.9096C16.042 15.9249 15.9586 15.9249 15.8774 15.9096C15.7857 15.8924 15.6982 15.8487 15.5233 15.7612L2.66699 9.33309Z" stroke="#344054" stroke-linecap="round" stroke-linejoin="round"/>
</svg>
