<svg width="24" height="26" viewBox="0 0 24 26" fill="none" xmlns="http://www.w3.org/2000/svg">
<path d="M12.0005 17C7.77368 17 4.01485 19.0408 1.62178 22.208C1.10672 22.8896 0.849198 23.2304 0.857622 23.691C0.86413 24.0469 1.0876 24.4959 1.36761 24.7156C1.73004 25 2.23228 25 3.23676 25H20.7641C21.7686 25 22.2709 25 22.6333 24.7156C22.9133 24.4959 23.1368 24.0469 23.1433 23.691C23.1517 23.2304 22.8942 22.8896 22.3791 22.208C19.9861 19.0408 16.2272 17 12.0005 17Z" stroke="#344054" stroke-linecap="round" stroke-linejoin="round"/>
<path d="M12.0005 13C15.3142 13 18.0005 10.3137 18.0005 7C18.0005 3.68629 15.3142 1 12.0005 1C8.68674 1 6.00045 3.68629 6.00045 7C6.00045 10.3137 8.68674 13 12.0005 13Z" stroke="#344054" stroke-linecap="round" stroke-linejoin="round"/>
</svg>
