<svg width="40" height="40" viewBox="0 0 40 40" fill="none" xmlns="http://www.w3.org/2000/svg">
<rect width="40" height="40" rx="6" fill="white"/>
<path d="M17.7954 27.4998C18.3831 28.0185 19.1549 28.3332 20.0003 28.3332C20.8457 28.3332 21.6175 28.0185 22.2052 27.4998M25.0003 16.6665C25.0003 15.3404 24.4735 14.0687 23.5358 13.131C22.5982 12.1933 21.3264 11.6665 20.0003 11.6665C18.6742 11.6665 17.4024 12.1933 16.4648 13.131C15.5271 14.0687 15.0003 15.3404 15.0003 16.6665C15.0003 19.2417 14.3507 21.0048 13.625 22.171C13.0129 23.1547 12.7068 23.6466 12.7181 23.7838C12.7305 23.9357 12.7627 23.9937 12.8851 24.0845C12.9957 24.1665 13.4941 24.1665 14.491 24.1665H25.5096C26.5065 24.1665 27.0049 24.1665 27.1155 24.0845C27.2379 23.9937 27.2701 23.9357 27.2825 23.7838C27.2938 23.6466 26.9877 23.1547 26.3756 22.171C25.6499 21.0048 25.0003 19.2417 25.0003 16.6665Z" stroke="#667085" stroke-width="1.66667" stroke-linecap="round" stroke-linejoin="round"/>
</svg>
